{
    "asset": {
        "generator": "Khronos glTF Blender I/O v3.6.27",
        "version": "2.0"
    },
    "scene": 0,
    "scenes": [
        {
            "name": "Scene",
            "nodes": [
                0
            ]
        }
    ],
    "nodes": [
        {
            "mesh": 0,
            "name": "weflciqaa_LOD0_TIER0_000",
            "rotation": [
                0.7071068286895752,
                0,
                0,
                0.7071068286895752
            ],
            "scale": [
                0.009999999776482582,
                0.009999999776482582,
                0.009999999776482582
            ]
        }
    ],
    "materials": [
        {
            "doubleSided": true,
            "name": "MI_weflciqaa",
            "normalTexture": {
                "index": 0
            },
            "occlusionTexture": {
                "index": 1
            },
            "pbrMetallicRoughness": {
                "baseColorTexture": {
                    "index": 2
                },
                "metallicRoughnessTexture": {
                    "index": 1
                }
            }
        }
    ],
    "meshes": [
        {
            "name": "S_weflciqaa_tier_0",
            "primitives": [
                {
                    "attributes": {
                        "POSITION": 0,
                        "NORMAL": 1,
                        "TEXCOORD_0": 2,
                        "TANGENT": 3
                    },
                    "indices": 4,
                    "material": 0
                }
            ]
        }
    ],
    "textures": [
        {
            "sampler": 0,
            "source": 0
        },
        {
            "sampler": 0,
            "source": 1
        },
        {
            "sampler": 0,
            "source": 2
        }
    ],
    "images": [
        {
            "mimeType": "image/png",
            "name": "T_weflciqaa_8K_N",
            "uri": "Textures/T_weflciqaa_8K_N.png"
        },
        {
            "mimeType": "image/png",
            "name": "T_weflciqaa_8K_ORM",
            "uri": "Textures/T_weflciqaa_8K_ORM.png",
            "extras": {
                "compression": "mask"
            }
        },
        {
            "mimeType": "image/png",
            "name": "T_weflciqaa_8K_B",
            "uri": "Textures/T_weflciqaa_8K_B.png"
        }
    ],
    "accessors": [
        {
            "bufferView": 0,
            "componentType": 5126,
            "count": 507645,
            "max": [
                13.033217430114746,
                2.5133955478668213,
                1.962992548942566
            ],
            "min": [
                -17.221755981445312,
                -2.5270886421203613,
                -1.961168885231018
            ],
            "type": "VEC3"
        },
        {
            "bufferView": 1,
            "componentType": 5126,
            "count": 507645,
            "type": "VEC3"
        },
        {
            "bufferView": 2,
            "componentType": 5126,
            "count": 507645,
            "type": "VEC2"
        },
        {
            "bufferView": 3,
            "componentType": 5126,
            "count": 507645,
            "type": "VEC4"
        },
        {
            "bufferView": 4,
            "componentType": 5125,
            "count": 3000000,
            "type": "SCALAR"
        }
    ],
    "bufferViews": [
        {
            "buffer": 0,
            "byteLength": 6091740,
            "byteOffset": 0,
            "target": 34962
        },
        {
            "buffer": 0,
            "byteLength": 6091740,
            "byteOffset": 6091740,
            "target": 34962
        },
        {
            "buffer": 0,
            "byteLength": 4061160,
            "byteOffset": 12183480,
            "target": 34962
        },
        {
            "buffer": 0,
            "byteLength": 8122320,
            "byteOffset": 16244640,
            "target": 34962
        },
        {
            "buffer": 0,
            "byteLength": 12000000,
            "byteOffset": 24366960,
            "target": 34963
        }
    ],
    "samplers": [
        {
            "magFilter": 9729,
            "minFilter": 9987
        }
    ],
    "buffers": [
        {
            "byteLength": 36366960,
            "uri": "weflciqaa_tier_0.bin"
        }
    ]
}